<svg width="105" height="61" viewBox="0 0 105 61" fill="none" xmlns="http://www.w3.org/2000/svg">
<rect x="57" y="42" width="8" height="12" fill="#918D8D"/>
<rect x="34" y="42" width="7" height="12" fill="#918D8D"/>
<rect x="19" y="42" width="7" height="12" fill="#918D8D"/>
<path d="M3.03409 11.0909H12.1364L21.75 34.5455H22.1591L31.7727 11.0909H40.875V46H33.7159V23.2784H33.4261L24.392 45.8295H19.517L10.483 23.1932H10.1932V46H3.03409V11.0909ZM44.9105 11.0909H53.1776L61.1378 26.125H61.4787L69.4389 11.0909H77.706L64.973 33.6591V46H57.6435V33.6591L44.9105 11.0909Z" fill="#918D8D"/>
<rect x="3" y="42" width="7" height="12" fill="#918D8D"/>
<path d="M13.6309 46.2012H11.0645C11.0176 45.8691 10.9219 45.5742 10.7773 45.3164C10.6328 45.0547 10.4473 44.832 10.2207 44.6484C9.99414 44.4648 9.73242 44.3242 9.43555 44.2266C9.14258 44.1289 8.82422 44.0801 8.48047 44.0801C7.85938 44.0801 7.31836 44.2344 6.85742 44.543C6.39648 44.8477 6.03906 45.293 5.78516 45.8789C5.53125 46.4609 5.4043 47.168 5.4043 48C5.4043 48.8555 5.53125 49.5742 5.78516 50.1562C6.04297 50.7383 6.40234 51.1777 6.86328 51.4746C7.32422 51.7715 7.85742 51.9199 8.46289 51.9199C8.80273 51.9199 9.11719 51.875 9.40625 51.7852C9.69922 51.6953 9.95898 51.5645 10.1855 51.3926C10.4121 51.2168 10.5996 51.0039 10.748 50.7539C10.9004 50.5039 11.0059 50.2187 11.0645 49.8984L13.6309 49.9102C13.5645 50.4609 13.3984 50.9922 13.1328 51.5039C12.8711 52.0117 12.5176 52.4668 12.0723 52.8691C11.6309 53.2676 11.1035 53.584 10.4902 53.8184C9.88086 54.0488 9.19141 54.1641 8.42188 54.1641C7.35156 54.1641 6.39453 53.9219 5.55078 53.4375C4.71094 52.9531 4.04688 52.252 3.55859 51.334C3.07422 50.416 2.83203 49.3047 2.83203 48C2.83203 46.6914 3.07813 45.5781 3.57031 44.6602C4.0625 43.7422 4.73047 43.043 5.57422 42.5625C6.41797 42.0781 7.36719 41.8359 8.42188 41.8359C9.11719 41.8359 9.76172 41.9336 10.3555 42.1289C10.9531 42.3242 11.4824 42.6094 11.9434 42.9844C12.4043 43.3555 12.7793 43.8105 13.0684 44.3496C13.3613 44.8887 13.5488 45.5059 13.6309 46.2012ZM15.4502 54V42H23.5361V44.0918H17.9873V46.9512H23.1201V49.043H17.9873V51.9082H23.5596V54H15.4502ZM25.5532 54V42H28.0903V51.9082H33.2349V54H25.5532ZM37.4521 42V54H34.915V42H37.4521ZM46.9517 42H49.4888V49.793C49.4888 50.668 49.2798 51.4336 48.8618 52.0898C48.4478 52.7461 47.8677 53.2578 47.1216 53.625C46.3755 53.9883 45.5063 54.1699 44.5142 54.1699C43.5181 54.1699 42.647 53.9883 41.9009 53.625C41.1548 53.2578 40.5747 52.7461 40.1606 52.0898C39.7466 51.4336 39.5396 50.668 39.5396 49.793V42H42.0767V49.5762C42.0767 50.0332 42.1763 50.4395 42.3755 50.7949C42.5786 51.1504 42.8638 51.4297 43.231 51.6328C43.5981 51.8359 44.0259 51.9375 44.5142 51.9375C45.0063 51.9375 45.4341 51.8359 45.7974 51.6328C46.1646 51.4297 46.4478 51.1504 46.647 50.7949C46.8501 50.4395 46.9517 50.0332 46.9517 49.5762V42ZM51.5762 42H54.7051L58.0098 50.0625H58.1504L61.4551 42H64.584V54H62.123V46.1895H62.0234L58.918 53.9414H57.2422L54.1367 46.1602H54.0371V54H51.5762V42Z" fill="black"/>
</svg>
