<svg width="74" height="44" viewBox="0 0 74 44" fill="none" xmlns="http://www.w3.org/2000/svg">
<g clip-path="url(#clip0_81_177)">
<rect x="53.543" y="32.2182" width="8.07619" height="11.7818" fill="#918D8D"/>
<rect x="30.3237" y="32.2182" width="7.06667" height="11.7818" fill="#918D8D"/>
<rect x="15.1809" y="32.2182" width="7.06667" height="11.7818" fill="#918D8D"/>
<path d="M-0.965909 0.0909081H8.13636L17.75 23.5455H18.1591L27.7727 0.0909081H36.875V35H29.7159V12.2784H29.4261L20.392 34.8295H15.517L6.48295 12.1932H6.19318V35H-0.965909V0.0909081ZM40.9105 0.0909081H49.1776L57.1378 15.125H57.4787L65.4389 0.0909081H73.706L60.973 22.6591V35H53.6435V22.6591L40.9105 0.0909081Z" fill="#918D8D"/>
<rect x="-0.971436" y="32.2182" width="7.06667" height="11.7818" fill="#918D8D"/>
<path d="M9.6499 36.4921H7.0835C7.03662 36.16 6.94092 35.8651 6.79639 35.6073C6.65186 35.3456 6.46631 35.1229 6.23975 34.9393C6.01318 34.7557 5.75146 34.6151 5.45459 34.5175C5.16162 34.4198 4.84326 34.371 4.49951 34.371C3.87842 34.371 3.3374 34.5253 2.87647 34.8339C2.41553 35.1385 2.05811 35.5839 1.8042 36.1698C1.55029 36.7518 1.42334 37.4589 1.42334 38.2909C1.42334 39.1464 1.55029 39.8651 1.8042 40.4471C2.06201 41.0292 2.42139 41.4686 2.88232 41.7655C3.34326 42.0624 3.87647 42.2108 4.48193 42.2108C4.82178 42.2108 5.13623 42.1659 5.42529 42.076C5.71826 41.9862 5.97803 41.8553 6.20459 41.6835C6.43115 41.5077 6.61865 41.2948 6.76709 41.0448C6.91943 40.7948 7.0249 40.5096 7.0835 40.1893L9.6499 40.201C9.5835 40.7518 9.41748 41.2831 9.15186 41.7948C8.89014 42.3026 8.53662 42.7577 8.09131 43.16C7.6499 43.5585 7.12256 43.8749 6.50928 44.1093C5.8999 44.3397 5.21045 44.455 4.44092 44.455C3.37061 44.455 2.41357 44.2128 1.56982 43.7284C0.729981 43.244 0.065918 42.5428 -0.422363 41.6249C-0.906738 40.7069 -1.14893 39.5956 -1.14893 38.2909C-1.14893 36.9823 -0.902832 35.869 -0.410644 34.951C0.0815431 34.0331 0.749512 33.3339 1.59326 32.8534C2.43701 32.369 3.38623 32.1268 4.44092 32.1268C5.13623 32.1268 5.78076 32.2245 6.37451 32.4198C6.97217 32.6151 7.50147 32.9003 7.9624 33.2753C8.42334 33.6464 8.79834 34.1014 9.0874 34.6405C9.38037 35.1796 9.56787 35.7968 9.6499 36.4921ZM11.4692 44.2909V32.2909H19.5552V34.3827H14.0063V37.2421H19.1392V39.3339H14.0063V42.1991H19.5786V44.2909H11.4692ZM21.5723 44.2909V32.2909H24.1094V42.1991H29.2539V44.2909H21.5723ZM33.4712 32.2909V44.2909H30.9341V32.2909H33.4712ZM42.9707 32.2909H45.5078V40.0839C45.5078 40.9589 45.2988 41.7245 44.8809 42.3807C44.4668 43.037 43.8867 43.5487 43.1406 43.9159C42.3945 44.2792 41.5254 44.4608 40.5332 44.4608C39.5371 44.4608 38.666 44.2792 37.9199 43.9159C37.1738 43.5487 36.5938 43.037 36.1797 42.3807C35.7656 41.7245 35.5586 40.9589 35.5586 40.0839V32.2909H38.0957V39.8671C38.0957 40.3241 38.1953 40.7303 38.3945 41.0858C38.5977 41.4413 38.8828 41.7206 39.25 41.9237C39.6172 42.1268 40.0449 42.2284 40.5332 42.2284C41.0254 42.2284 41.4531 42.1268 41.8164 41.9237C42.1836 41.7206 42.4668 41.4413 42.666 41.0858C42.8691 40.7303 42.9707 40.3241 42.9707 39.8671V32.2909ZM47.5952 32.2909H50.7241L54.0288 40.3534H54.1694L57.4741 32.2909H60.603V44.2909H58.1421V36.4803H58.0425L54.937 44.2323H53.2612L50.1558 36.451H50.0562V44.2909H47.5952V32.2909Z" fill="black"/>
</g>
<defs>
<clipPath id="clip0_81_177">
<rect width="74" height="44" fill="white"/>
</clipPath>
</defs>
</svg>
