<svg width="74" height="44" viewBox="0 0 74 44" fill="none" xmlns="http://www.w3.org/2000/svg">
<g clip-path="url(#clip0_86_178)">
<rect x="55.543" y="32.2182" width="8.07619" height="11.7818" fill="#0500FF"/>
<rect x="32.3237" y="32.2182" width="7.06667" height="11.7818" fill="#0500FF"/>
<rect x="17.1809" y="32.2182" width="7.06667" height="11.7818" fill="#0500FF"/>
<path d="M1.03409 0.0909081H10.1364L19.75 23.5455H20.1591L29.7727 0.0909081H38.875V35H31.7159V12.2784H31.4261L22.392 34.8295H17.517L8.48295 12.1932H8.19318V35H1.03409V0.0909081ZM42.9105 0.0909081H51.1776L59.1378 15.125H59.4787L67.4389 0.0909081H75.706L62.973 22.6591V35H55.6435V22.6591L42.9105 0.0909081Z" fill="#0500FF"/>
<rect x="1.02856" y="32.2182" width="7.06667" height="11.7818" fill="#0500FF"/>
<path d="M11.6499 36.4921H9.0835C9.03662 36.16 8.94092 35.8651 8.79639 35.6073C8.65186 35.3456 8.46631 35.1229 8.23975 34.9393C8.01318 34.7557 7.75146 34.6151 7.45459 34.5175C7.16162 34.4198 6.84326 34.371 6.49951 34.371C5.87842 34.371 5.3374 34.5253 4.87647 34.8339C4.41553 35.1385 4.05811 35.5839 3.8042 36.1698C3.55029 36.7518 3.42334 37.4589 3.42334 38.2909C3.42334 39.1464 3.55029 39.8651 3.8042 40.4471C4.06201 41.0292 4.42139 41.4686 4.88232 41.7655C5.34326 42.0624 5.87647 42.2108 6.48193 42.2108C6.82178 42.2108 7.13623 42.1659 7.42529 42.076C7.71826 41.9862 7.97803 41.8553 8.20459 41.6835C8.43115 41.5077 8.61865 41.2948 8.76709 41.0448C8.91943 40.7948 9.0249 40.5096 9.0835 40.1893L11.6499 40.201C11.5835 40.7518 11.4175 41.2831 11.1519 41.7948C10.8901 42.3026 10.5366 42.7577 10.0913 43.16C9.6499 43.5585 9.12256 43.8749 8.50928 44.1093C7.8999 44.3397 7.21045 44.455 6.44092 44.455C5.37061 44.455 4.41357 44.2128 3.56982 43.7284C2.72998 43.244 2.06592 42.5428 1.57764 41.6249C1.09326 40.7069 0.851074 39.5956 0.851074 38.2909C0.851074 36.9823 1.09717 35.869 1.58936 34.951C2.08154 34.0331 2.74951 33.3339 3.59326 32.8534C4.43701 32.369 5.38623 32.1268 6.44092 32.1268C7.13623 32.1268 7.78076 32.2245 8.37451 32.4198C8.97217 32.6151 9.50147 32.9003 9.9624 33.2753C10.4233 33.6464 10.7983 34.1014 11.0874 34.6405C11.3804 35.1796 11.5679 35.7968 11.6499 36.4921ZM13.4692 44.2909V32.2909H21.5552V34.3827H16.0063V37.2421H21.1392V39.3339H16.0063V42.1991H21.5786V44.2909H13.4692ZM23.5723 44.2909V32.2909H26.1094V42.1991H31.2539V44.2909H23.5723ZM35.4712 32.2909V44.2909H32.9341V32.2909H35.4712ZM44.9707 32.2909H47.5078V40.0839C47.5078 40.9589 47.2988 41.7245 46.8809 42.3807C46.4668 43.037 45.8867 43.5487 45.1406 43.9159C44.3945 44.2792 43.5254 44.4608 42.5332 44.4608C41.5371 44.4608 40.666 44.2792 39.9199 43.9159C39.1738 43.5487 38.5938 43.037 38.1797 42.3807C37.7656 41.7245 37.5586 40.9589 37.5586 40.0839V32.2909H40.0957V39.8671C40.0957 40.3241 40.1953 40.7303 40.3945 41.0858C40.5977 41.4413 40.8828 41.7206 41.25 41.9237C41.6172 42.1268 42.0449 42.2284 42.5332 42.2284C43.0254 42.2284 43.4531 42.1268 43.8164 41.9237C44.1836 41.7206 44.4668 41.4413 44.666 41.0858C44.8691 40.7303 44.9707 40.3241 44.9707 39.8671V32.2909ZM49.5952 32.2909H52.7241L56.0288 40.3534H56.1694L59.4741 32.2909H62.603V44.2909H60.1421V36.4803H60.0425L56.937 44.2323H55.2612L52.1558 36.451H52.0562V44.2909H49.5952V32.2909Z" fill="#43FA03"/>
</g>
<defs>
<clipPath id="clip0_86_178">
<rect width="74" height="44" fill="white"/>
</clipPath>
</defs>
</svg>
