<svg width="48" height="45" viewBox="0 0 48 45" fill="none" xmlns="http://www.w3.org/2000/svg">
<path d="M24 44C20.6863 42.6404 13.7529 37.9632 12.5294 30.1316C11.3059 22.3 11 15.4474 11 13" stroke="#F200F7"/>
<path d="M23 44C21.7889 42.0556 19.512 37.1667 20.0933 33.1667C20.6746 29.1667 20.3355 25.3889 20.0933 24" stroke="#F200F7"/>
<path d="M24 44C26 38.1667 30 24 30 14" stroke="#F200F7"/>
<path d="M26 44C28.1667 43.4603 32.9875 41.4095 34.9375 37.5238C36.8875 33.6381 38.4583 28.8889 39 27" stroke="#F200F7"/>
<path d="M1.07881 11.75C0.25862 10.9231 5.99897 1 10.9191 1C15.8393 1 19.1196 10.0962 19.9396 12.5769C20.7596 15.0577 15.0196 15.0577 10.9193 15.0577C6.819 15.0577 1.899 12.5769 1.07881 11.75Z" fill="#F200F6"/>
<path d="M28.9599 14.2308C28.1404 14.2308 23.2202 13.4038 22.3997 11.75C21.5792 10.0962 25.6793 2.65385 28.9599 3.48077C32.2405 4.30769 33.8801 6.78846 35.5201 10.0962C37.1602 13.4038 29.7794 14.2308 28.9599 14.2308Z" fill="#F200F6"/>
<path d="M37.9802 14.2308C33.8805 14.2308 29.7799 21.6731 30.5995 24.1538C31.419 26.6346 33.8796 27.4615 40.4403 27.4615C47.001 27.4615 47.0005 25.8077 47 24.1538C46.9995 22.5 42.0798 14.2308 37.9802 14.2308Z" fill="#F200F6"/>
<path d="M19.9396 17.5385C16.659 17.5385 15.0194 20.8462 15.0194 23.3269C14.8899 24.9808 18.3 25.8077 21.5796 25.8077C24.8593 25.8077 25.6793 24.1538 25.6798 22.5C25.6803 20.8462 23.2202 17.5385 19.9396 17.5385Z" fill="#F200F6"/>
<path d="M9.27875 44H42.0798M10.9191 1C5.99897 1 0.25862 10.9231 1.07881 11.75C1.899 12.5769 6.819 15.0577 10.9193 15.0577C15.0196 15.0577 20.7596 15.0577 19.9396 12.5769C19.1196 10.0962 15.8393 1 10.9191 1ZM22.3997 11.75C23.2202 13.4038 28.1404 14.2308 28.9599 14.2308C29.7794 14.2308 37.1602 13.4038 35.5201 10.0962C33.8801 6.78846 32.2405 4.30769 28.9599 3.48077C25.6793 2.65385 21.5792 10.0962 22.3997 11.75ZM30.5995 24.1538C29.7799 21.6731 33.8805 14.2308 37.9802 14.2308C42.0798 14.2308 46.9995 22.5 47 24.1538C47.0005 25.8077 47.001 27.4615 40.4403 27.4615C33.8796 27.4615 31.419 26.6346 30.5995 24.1538ZM15.0194 23.3269C15.0194 20.8462 16.659 17.5385 19.9396 17.5385C23.2202 17.5385 25.6803 20.8462 25.6798 22.5C25.6793 24.1538 24.8593 25.8077 21.5796 25.8077C18.3 25.8077 14.8899 24.9808 15.0194 23.3269Z" stroke="#F200F7"/>
</svg>
